# This file uses centimeters as units for non-parametric coordinates.

mtllib 3DTest.mtl
g default
v -3.040664 0.065165 1.195508
v -0.649648 0.065165 1.195508
v -3.040664 2.456181 1.195508
v -0.649648 2.456181 1.195508
v -3.040664 2.456181 -1.195508
v -0.649648 2.456181 -1.195508
v -3.040664 0.065165 -1.195508
v -0.649648 0.065165 -1.195508
vt 0.375000 0.000000
vt 0.625000 0.000000
vt 0.375000 0.250000
vt 0.625000 0.250000
vt 0.375000 0.500000
vt 0.625000 0.500000
vt 0.375000 0.750000
vt 0.625000 0.750000
vt 0.375000 1.000000
vt 0.625000 1.000000
vt 0.875000 0.000000
vt 0.875000 0.250000
vt 0.125000 0.000000
vt 0.125000 0.250000
vn 0.000000 0.000000 1.000000
vn 0.000000 0.000000 1.000000
vn 0.000000 0.000000 1.000000
vn 0.000000 0.000000 1.000000
vn 0.000000 1.000000 0.000000
vn 0.000000 1.000000 0.000000
vn 0.000000 1.000000 0.000000
vn 0.000000 1.000000 0.000000
vn 0.000000 0.000000 -1.000000
vn 0.000000 0.000000 -1.000000
vn 0.000000 0.000000 -1.000000
vn 0.000000 0.000000 -1.000000
vn 0.000000 -1.000000 0.000000
vn 0.000000 -1.000000 0.000000
vn 0.000000 -1.000000 0.000000
vn 0.000000 -1.000000 0.000000
vn 1.000000 0.000000 0.000000
vn 1.000000 0.000000 0.000000
vn 1.000000 0.000000 0.000000
vn 1.000000 0.000000 0.000000
vn -1.000000 0.000000 0.000000
vn -1.000000 0.000000 0.000000
vn -1.000000 0.000000 0.000000
vn -1.000000 0.000000 0.000000
s off
g pCube1
usemtl initialShadingGroup
f 1/1/1 2/2/2 4/4/3 3/3/4
f 3/3/5 4/4/6 6/6/7 5/5/8
f 5/5/9 6/6/10 8/8/11 7/7/12
f 7/7/13 8/8/14 2/10/15 1/9/16
f 2/2/17 8/11/18 6/12/19 4/4/20
f 7/13/21 1/1/22 3/3/23 5/14/24
g default
v -0.476663 0.065165 1.195508
v 1.914354 0.065165 1.195508
v -0.476663 2.456181 1.195508
v 1.914354 2.456181 1.195508
v -0.476663 2.456181 -1.195508
v 1.914354 2.456181 -1.195508
v -0.476663 0.065165 -1.195508
v 1.914354 0.065165 -1.195508
vt 0.375000 0.000000
vt 0.625000 0.000000
vt 0.375000 0.250000
vt 0.625000 0.250000
vt 0.375000 0.500000
vt 0.625000 0.500000
vt 0.375000 0.750000
vt 0.625000 0.750000
vt 0.375000 1.000000
vt 0.625000 1.000000
vt 0.875000 0.000000
vt 0.875000 0.250000
vt 0.125000 0.000000
vt 0.125000 0.250000
vn 0.000000 0.000000 1.000000
vn 0.000000 0.000000 1.000000
vn 0.000000 0.000000 1.000000
vn 0.000000 0.000000 1.000000
vn 0.000000 1.000000 0.000000
vn 0.000000 1.000000 0.000000
vn 0.000000 1.000000 0.000000
vn 0.000000 1.000000 0.000000
vn 0.000000 0.000000 -1.000000
vn 0.000000 0.000000 -1.000000
vn 0.000000 0.000000 -1.000000
vn 0.000000 0.000000 -1.000000
vn 0.000000 -1.000000 0.000000
vn 0.000000 -1.000000 0.000000
vn 0.000000 -1.000000 0.000000
vn 0.000000 -1.000000 0.000000
vn 1.000000 0.000000 0.000000
vn 1.000000 0.000000 0.000000
vn 1.000000 0.000000 0.000000
vn 1.000000 0.000000 0.000000
vn -1.000000 0.000000 0.000000
vn -1.000000 0.000000 0.000000
vn -1.000000 0.000000 0.000000
vn -1.000000 0.000000 0.000000
s off
g pCube2
usemtl initialShadingGroup
f 9/15/25 10/16/26 12/18/27 11/17/28
f 11/17/29 12/18/30 14/20/31 13/19/32
f 13/19/33 14/20/34 16/22/35 15/21/36
f 15/21/37 16/22/38 10/24/39 9/23/40
f 10/16/41 16/25/42 14/26/43 12/18/44
f 15/27/45 9/15/46 11/17/47 13/28/48
g default
v 2.053850 0.065165 1.195508
v 4.444867 0.065165 1.195508
v 2.053850 2.456181 1.195508
v 4.444867 2.456181 1.195508
v 2.053850 2.456181 -1.195508
v 4.444867 2.456181 -1.195508
v 2.053850 0.065165 -1.195508
v 4.444867 0.065165 -1.195508
vt 0.375000 0.000000
vt 0.625000 0.000000
vt 0.375000 0.250000
vt 0.625000 0.250000
vt 0.375000 0.500000
vt 0.625000 0.500000
vt 0.375000 0.750000
vt 0.625000 0.750000
vt 0.375000 1.000000
vt 0.625000 1.000000
vt 0.875000 0.000000
vt 0.875000 0.250000
vt 0.125000 0.000000
vt 0.125000 0.250000
vn 0.000000 0.000000 1.000000
vn 0.000000 0.000000 1.000000
vn 0.000000 0.000000 1.000000
vn 0.000000 0.000000 1.000000
vn 0.000000 1.000000 0.000000
vn 0.000000 1.000000 0.000000
vn 0.000000 1.000000 0.000000
vn 0.000000 1.000000 0.000000
vn 0.000000 0.000000 -1.000000
vn 0.000000 0.000000 -1.000000
vn 0.000000 0.000000 -1.000000
vn 0.000000 0.000000 -1.000000
vn 0.000000 -1.000000 0.000000
vn 0.000000 -1.000000 0.000000
vn 0.000000 -1.000000 0.000000
vn 0.000000 -1.000000 0.000000
vn 1.000000 0.000000 0.000000
vn 1.000000 0.000000 0.000000
vn 1.000000 0.000000 0.000000
vn 1.000000 0.000000 0.000000
vn -1.000000 0.000000 0.000000
vn -1.000000 0.000000 0.000000
vn -1.000000 0.000000 0.000000
vn -1.000000 0.000000 0.000000
s off
g pCube3
usemtl initialShadingGroup
f 17/29/49 18/30/50 20/32/51 19/31/52
f 19/31/53 20/32/54 22/34/55 21/33/56
f 21/33/57 22/34/58 24/36/59 23/35/60
f 23/35/61 24/36/62 18/38/63 17/37/64
f 18/30/65 24/39/66 22/40/67 20/32/68
f 23/41/69 17/29/70 19/31/71 21/42/72
g default
v 2.825350 0.836665 0.424008
v 3.673367 0.836665 0.424008
v 2.825350 1.684682 0.424008
v 3.673367 1.684682 0.424008
v 2.825350 1.684682 -0.424008
v 3.673367 1.684682 -0.424008
v 2.825350 0.836665 -0.424008
v 3.673367 0.836665 -0.424008
vt 0.375000 0.000000
vt 0.625000 0.000000
vt 0.375000 0.250000
vt 0.625000 0.250000
vt 0.375000 0.500000
vt 0.625000 0.500000
vt 0.375000 0.750000
vt 0.625000 0.750000
vt 0.375000 1.000000
vt 0.625000 1.000000
vt 0.875000 0.000000
vt 0.875000 0.250000
vt 0.125000 0.000000
vt 0.125000 0.250000
vn 0.000000 0.000000 1.000000
vn 0.000000 0.000000 1.000000
vn 0.000000 0.000000 1.000000
vn 0.000000 0.000000 1.000000
vn 0.000000 1.000000 0.000000
vn 0.000000 1.000000 0.000000
vn 0.000000 1.000000 0.000000
vn 0.000000 1.000000 0.000000
vn 0.000000 0.000000 -1.000000
vn 0.000000 0.000000 -1.000000
vn 0.000000 0.000000 -1.000000
vn 0.000000 0.000000 -1.000000
vn 0.000000 -1.000000 0.000000
vn 0.000000 -1.000000 0.000000
vn 0.000000 -1.000000 0.000000
vn 0.000000 -1.000000 0.000000
vn 1.000000 0.000000 0.000000
vn 1.000000 0.000000 0.000000
vn 1.000000 0.000000 0.000000
vn 1.000000 0.000000 0.000000
vn -1.000000 0.000000 0.000000
vn -1.000000 0.000000 0.000000
vn -1.000000 0.000000 0.000000
vn -1.000000 0.000000 0.000000
s off
g pCube4
usemtl initialShadingGroup
f 25/43/73 26/44/74 28/46/75 27/45/76
f 27/45/77 28/46/78 30/48/79 29/47/80
f 29/47/81 30/48/82 32/50/83 31/49/84
f 31/49/85 32/50/86 26/52/87 25/51/88
f 26/44/89 32/53/90 30/54/91 28/46/92
f 31/55/93 25/43/94 27/45/95 29/56/96
g default
v 5.347818 1.558206 -0.092406
v 5.347886 1.515732 -0.175766
v 5.347990 1.449576 -0.241922
v 5.348123 1.366216 -0.284396
v 5.348269 1.273810 -0.299031
v 5.348416 1.181405 -0.284396
v 5.348548 1.098044 -0.241922
v 5.348653 1.031889 -0.175766
v 5.348720 0.989415 -0.092406
v 5.348744 0.974779 0.000000
v 5.348720 0.989415 0.092406
v 5.348653 1.031889 0.175766
v 5.348548 1.098044 0.241921
v 5.348416 1.181405 0.284396
v 5.348269 1.273810 0.299031
v 5.348123 1.366216 0.284396
v 5.347990 1.449576 0.241921
v 5.347886 1.515732 0.175766
v 5.347818 1.558206 0.092406
v 5.347795 1.572841 0.000000
v -4.321888 1.542869 -0.092406
v -4.321821 1.500395 -0.175766
v -4.321716 1.434240 -0.241922
v -4.321584 1.350879 -0.284396
v -4.321437 1.258474 -0.299031
v -4.321291 1.166068 -0.284396
v -4.321158 1.082708 -0.241922
v -4.321054 1.016553 -0.175766
v -4.320986 0.974078 -0.092406
v -4.320963 0.959443 0.000000
v -4.320986 0.974078 0.092406
v -4.321054 1.016553 0.175766
v -4.321158 1.082708 0.241921
v -4.321291 1.166068 0.284396
v -4.321437 1.258474 0.299031
v -4.321584 1.350879 0.284396
v -4.321716 1.434240 0.241921
v -4.321821 1.500395 0.175766
v -4.321888 1.542869 0.092406
v -4.321912 1.557505 0.000000
v 5.348269 1.273810 0.000000
v -4.321437 1.258474 0.000000
vt 0.648603 0.107966
vt 0.626409 0.064408
vt 0.591842 0.029841
vt 0.548284 0.007647
vt 0.500000 -0.000000
vt 0.451716 0.007647
vt 0.408159 0.029841
vt 0.373591 0.064409
vt 0.351397 0.107966
vt 0.343750 0.156250
vt 0.351397 0.204534
vt 0.373591 0.248091
vt 0.408159 0.282659
vt 0.451716 0.304853
vt 0.500000 0.312500
vt 0.548284 0.304853
vt 0.591841 0.282659
vt 0.626409 0.248091
vt 0.648603 0.204534
vt 0.656250 0.156250
vt 0.375000 0.312500
vt 0.387500 0.312500
vt 0.400000 0.312500
vt 0.412500 0.312500
vt 0.425000 0.312500
vt 0.437500 0.312500
vt 0.450000 0.312500
vt 0.462500 0.312500
vt 0.475000 0.312500
vt 0.487500 0.312500
vt 0.500000 0.312500
vt 0.512500 0.312500
vt 0.525000 0.312500
vt 0.537500 0.312500
vt 0.550000 0.312500
vt 0.562500 0.312500
vt 0.575000 0.312500
vt 0.587500 0.312500
vt 0.600000 0.312500
vt 0.612500 0.312500
vt 0.625000 0.312500
vt 0.375000 0.688440
vt 0.387500 0.688440
vt 0.400000 0.688440
vt 0.412500 0.688440
vt 0.425000 0.688440
vt 0.437500 0.688440
vt 0.450000 0.688440
vt 0.462500 0.688440
vt 0.475000 0.688440
vt 0.487500 0.688440
vt 0.500000 0.688440
vt 0.512500 0.688440
vt 0.525000 0.688440
vt 0.537500 0.688440
vt 0.550000 0.688440
vt 0.562500 0.688440
vt 0.575000 0.688440
vt 0.587500 0.688440
vt 0.600000 0.688440
vt 0.612500 0.688440
vt 0.625000 0.688440
vt 0.648603 0.795466
vt 0.626409 0.751908
vt 0.591842 0.717341
vt 0.548284 0.695147
vt 0.500000 0.687500
vt 0.451716 0.695147
vt 0.408159 0.717341
vt 0.373591 0.751909
vt 0.351397 0.795466
vt 0.343750 0.843750
vt 0.351397 0.892034
vt 0.373591 0.935591
vt 0.408159 0.970159
vt 0.451716 0.992353
vt 0.500000 1.000000
vt 0.548284 0.992353
vt 0.591841 0.970159
vt 0.626409 0.935591
vt 0.648603 0.892034
vt 0.656250 0.843750
vt 0.500000 0.150000
vt 0.500000 0.837500
vn -0.001508 0.951056 -0.309016
vn -0.001283 0.809016 -0.587785
vn -0.001283 0.809016 -0.587785
vn -0.001508 0.951056 -0.309016
vn -0.000932 0.587784 -0.809017
vn -0.000932 0.587784 -0.809017
vn -0.000490 0.309016 -0.951057
vn -0.000490 0.309016 -0.951057
vn 0.000000 -0.000000 -1.000000
vn 0.000000 -0.000000 -1.000000
vn 0.000490 -0.309017 -0.951056
vn 0.000490 -0.309017 -0.951056
vn 0.000932 -0.587785 -0.809017
vn 0.000932 -0.587785 -0.809017
vn 0.001283 -0.809016 -0.587785
vn 0.001283 -0.809016 -0.587785
vn 0.001508 -0.951055 -0.309017
vn 0.001508 -0.951055 -0.309017
vn 0.001586 -0.999999 0.000000
vn 0.001586 -0.999999 0.000000
vn 0.001508 -0.951055 0.309017
vn 0.001508 -0.951055 0.309017
vn 0.001283 -0.809016 0.587785
vn 0.001283 -0.809016 0.587785
vn 0.000932 -0.587784 0.809017
vn 0.000932 -0.587784 0.809017
vn 0.000490 -0.309017 0.951057
vn 0.000490 -0.309017 0.951057
vn -0.000000 0.000000 1.000000
vn -0.000000 0.000000 1.000000
vn -0.000490 0.309017 0.951056
vn -0.000490 0.309017 0.951056
vn -0.000932 0.587785 0.809017
vn -0.000932 0.587785 0.809017
vn -0.001283 0.809016 0.587785
vn -0.001283 0.809016 0.587785
vn -0.001508 0.951055 0.309017
vn -0.001508 0.951055 0.309017
vn -0.001586 0.999999 0.000001
vn -0.001586 0.999999 0.000001
vn 0.999999 0.001586 0.000000
vn 0.999999 0.001586 0.000000
vn 0.999999 0.001586 0.000000
vn 0.999999 0.001586 0.000000
vn 0.999999 0.001586 0.000000
vn 0.999999 0.001586 0.000000
vn 0.999999 0.001586 0.000000
vn 0.999999 0.001586 0.000000
vn 0.999999 0.001586 0.000000
vn 0.999999 0.001586 0.000000
vn 0.999999 0.001586 0.000000
vn 0.999999 0.001586 0.000000
vn 0.999999 0.001586 0.000000
vn 0.999999 0.001586 0.000000
vn 0.999999 0.001586 0.000000
vn 0.999999 0.001586 0.000000
vn 0.999999 0.001586 0.000000
vn 0.999999 0.001586 0.000000
vn 0.999999 0.001586 0.000000
vn 0.999999 0.001586 0.000000
vn 0.999999 0.001586 0.000000
vn -0.999999 -0.001586 0.000000
vn -0.999999 -0.001586 0.000000
vn -0.999999 -0.001586 0.000000
vn -0.999999 -0.001586 0.000000
vn -0.999999 -0.001586 0.000000
vn -0.999999 -0.001586 0.000000
vn -0.999999 -0.001586 0.000000
vn -0.999999 -0.001586 0.000000
vn -0.999999 -0.001586 0.000000
vn -0.999999 -0.001586 0.000000
vn -0.999999 -0.001586 0.000000
vn -0.999999 -0.001586 0.000000
vn -0.999999 -0.001586 0.000000
vn -0.999999 -0.001586 0.000000
vn -0.999999 -0.001586 0.000000
vn -0.999999 -0.001586 0.000000
vn -0.999999 -0.001586 0.000000
vn -0.999999 -0.001586 0.000000
vn -0.999999 -0.001586 0.000000
vn -0.999999 -0.001586 0.000000
vn -0.999999 -0.001586 0.000000
s 1
g pCylinder1
usemtl initialShadingGroup
f 33/77/97 34/78/98 54/99/99 53/98/100
f 34/78/98 35/79/101 55/100/102 54/99/99
f 35/79/101 36/80/103 56/101/104 55/100/102
f 36/80/103 37/81/105 57/102/106 56/101/104
f 37/81/105 38/82/107 58/103/108 57/102/106
f 38/82/107 39/83/109 59/104/110 58/103/108
f 39/83/109 40/84/111 60/105/112 59/104/110
f 40/84/111 41/85/113 61/106/114 60/105/112
f 41/85/113 42/86/115 62/107/116 61/106/114
f 42/86/115 43/87/117 63/108/118 62/107/116
f 43/87/117 44/88/119 64/109/120 63/108/118
f 44/88/119 45/89/121 65/110/122 64/109/120
f 45/89/121 46/90/123 66/111/124 65/110/122
f 46/90/123 47/91/125 67/112/126 66/111/124
f 47/91/125 48/92/127 68/113/128 67/112/126
f 48/92/127 49/93/129 69/114/130 68/113/128
f 49/93/129 50/94/131 70/115/132 69/114/130
f 50/94/131 51/95/133 71/116/134 70/115/132
f 51/95/133 52/96/135 72/117/136 71/116/134
f 52/96/135 33/97/97 53/118/100 72/117/136
s 2
f 34/58/137 33/57/138 73/139/139
f 35/59/140 34/58/137 73/139/139
f 36/60/141 35/59/140 73/139/139
f 37/61/142 36/60/141 73/139/139
f 38/62/143 37/61/142 73/139/139
f 39/63/144 38/62/143 73/139/139
f 40/64/145 39/63/144 73/139/139
f 41/65/146 40/64/145 73/139/139
f 42/66/147 41/65/146 73/139/139
f 43/67/148 42/66/147 73/139/139
f 44/68/149 43/67/148 73/139/139
f 45/69/150 44/68/149 73/139/139
f 46/70/151 45/69/150 73/139/139
f 47/71/152 46/70/151 73/139/139
f 48/72/153 47/71/152 73/139/139
f 49/73/154 48/72/153 73/139/139
f 50/74/155 49/73/154 73/139/139
f 51/75/156 50/74/155 73/139/139
f 52/76/157 51/75/156 73/139/139
f 33/57/138 52/76/157 73/139/139
s 3
f 53/137/158 54/136/159 74/140/160
f 54/136/159 55/135/161 74/140/160
f 55/135/161 56/134/162 74/140/160
f 56/134/162 57/133/163 74/140/160
f 57/133/163 58/132/164 74/140/160
f 58/132/164 59/131/165 74/140/160
f 59/131/165 60/130/166 74/140/160
f 60/130/166 61/129/167 74/140/160
f 61/129/167 62/128/168 74/140/160
f 62/128/168 63/127/169 74/140/160
f 63/127/169 64/126/170 74/140/160
f 64/126/170 65/125/171 74/140/160
f 65/125/171 66/124/172 74/140/160
f 66/124/172 67/123/173 74/140/160
f 67/123/173 68/122/174 74/140/160
f 68/122/174 69/121/175 74/140/160
f 69/121/175 70/120/176 74/140/160
f 70/120/176 71/119/177 74/140/160
f 71/119/177 72/138/178 74/140/160
f 72/138/178 53/137/158 74/140/160
